<?xml version="1.0" encoding="UTF-8"?>
<svg id="Layer_1" xmlns="http://www.w3.org/2000/svg" version="1.1" viewBox="0 0 141.7 141.7">
  <!-- Generator: Adobe Illustrator 30.3.0, SVG Export Plug-In . SVG Version: 2.1.3 Build 182)  -->
  <defs>
    <style>
      .st0 {
        fill: #fff;
      }

      .st1 {
        fill: #219dbf;
      }
    </style>
  </defs>
  <path class="st1" d="M121.2,141.7H20.5C9.2,141.7,0,132.5,0,121.2V20.5C0,9.2,9.2,0,20.5,0h100.7C132.5,0,141.7,9.2,141.7,20.5v100.7c0,11.3-9.2,20.5-20.5,20.5Z"/>
  <g>
    <path class="st0" d="M22.7,63.7c0,.5-.3.9-.6,1.2-.2.3-.5.5-.9.7-.2.1-.5.2-.8.3-1.2.1-2.2-.2-2.9-1.3-.3-.5-.5-1-.4-1.5v-14.4c-.4,0-.8-.2-1.1-.3-.5-.2-.9-.5-1.2-1-.4-.5-.5-1-.5-1.7,0-4.7,0-9.5,0-14.2,0-1,.4-1.7,1.2-2.3.5-.4,1-.5,1.7-.5,1.2,0,2.4,0,3.6,0,.2,0,.3,0,.4.2.2.5.5,1,.8,1.5.2.3.3.6.5.9.1.3.3.3.4,0,.5-.8.9-1.7,1.4-2.5,0,0,.1-.1.2-.1,0,0,.1,0,.2,0h16c.6,0,1.1.3,1.6.6.5.4.8.8.9,1.4.2.6.2,1.2,0,1.8-.3.7-.8,1.3-1.4,1.6-.3.2-.7.2-1.1.2-3.9,0-7.7,0-11.6,0s-.4,0-.4.4v28.4c0,.7-.3,1.3-.8,1.7-.2.2-.5.5-.8.6-.2.1-.5.2-.7.2-1.2.1-2.1-.1-2.9-1.2-.2-.3-.3-.6-.5-.9Z"/>
    <path class="st0" d="M49.7,17c-.2-.7.2-1.7.9-1.9.2,0,.4-.1.7-.1,1.7,0,3.4,0,5.1,0s1.2.4,1.3.9c.1.4.2.8.3,1.2h.3c4.3,0,8.6,0,13,0,.8,0,1.7.8,1.7,1.7,0,10.4,0,20.8,0,31.2s-.4,1.1-.9,1.4c-.3.1-.5.2-.8.2h-34.4c-.2,0-.4,0-.6,0-.8,0-1.5-.8-1.5-1.6,0-.8.4-1.3,1-1.6.1,0,.3,0,.4,0h33.4v-27.4q0-.4-.4-.4h-32.8c-.8,0-1.3-.4-1.6-1-.4-1.1.2-2.3,1.5-2.3,4.3,0,8.7,0,13,0,.1,0,.2,0,.4,0Z"/>
    <path class="st0" d="M16.6,21.9c0-3.3,2.7-6.1,6.1-6,3.2,0,6,2.6,5.9,6.1,0,3.4-2.7,6.1-6.2,6-3.2,0-5.9-2.6-5.9-6.1Z"/>
  </g>
  <g>
    <path class="st0" d="M109.4,56.7H45.3l-.3,1.7-11,63.1h27.2l1.6,6.1h64.8l-18.1-70.9ZM120.4,112.7l.2.7h-6.8c.4-.4.8-1,1.1-1.5.6-1.2.9-2.5.8-3.9,3.4.9,4.6,4.3,4.7,4.4,0,0,0,.2.1.2ZM37.8,118.2l9.1-52.4,13.4,52.4h-22.6ZM48.7,59.9h58.3l11.7,46c-1.4-.8-3-1.2-5-1.2-.5,0-1,.3-1.3.7-.3.4-.4,1-.2,1.4.5,1.4.5,2.6,0,3.7-1,1.9-3.5,2.8-4.2,3h-45.1l-14.1-53.5ZM63.2,116.6h43.5c.1,0,.3,0,.4,0h14.4l2,7.7h-58.3l-2-7.8Z"/>
    <path class="st0" d="M78.4,90c1.4.6,4.6,1.9,7.4,1.9s5.1-1.8,4.6-4c-.7-3-4-4.3-7.1-4.3h-2.9l-1.2-5.1h2.7c2.4,0,5.2-.9,4.6-3.5s-2.2-3.2-5.2-3.2-4.8,1.1-5.9,1.8l-2.7-5.1c1.5-1.2,4.9-2.3,8.8-2.3,6.4,0,10.8,3.4,11.8,7.5s-.5,5.7-3.8,7h0c3.8.7,7.3,3.5,8.3,7.4,1.3,5.3-2.5,9.2-10.1,9.2s-7.4-1-9.5-2.1l.2-5.3Z"/>
    <path class="st0" d="M74.4,99.9v2.2c0,.7,0,1.6,0,2.4h0c-.4-.8-.8-1.6-1.2-2.3l-1.3-2.2h-2l1.5,6.6h1.4l-.6-2.5c-.2-.8-.5-1.8-.7-2.7h0c.4.9.9,1.8,1.3,2.6l1.4,2.6h1.2v-2.6c0-.8,0-1.7,0-2.6h0c.3,1,.6,1.9.8,2.7l.8,2.5h1.4l-2.3-6.6h-1.9Z"/>
    <path class="st0" d="M80.7,99.8c-1.9,0-2.8,1.5-2.2,3.4.6,1.9,2.1,3.3,4.1,3.3h0c1.9,0,2.8-1.3,2.2-3.5-.5-1.8-2.1-3.3-4.1-3.3ZM82.3,105.4h0c-1,0-1.9-1-2.2-2.2-.4-1.2,0-2.2.9-2.2s1.9,1,2.2,2.2c.4,1.3,0,2.2-.9,2.2Z"/>
    <path class="st0" d="M88.9,99.9l.6,1.9c.3,1,.6,1.9.9,2.8h0c-.5-.7-1.1-1.6-1.7-2.3l-2.1-2.4h-1.7l1.9,6.6h1.4l-.6-2c-.3-1.1-.6-2-.9-2.9h0c.5.8,1.2,1.6,1.8,2.3l2.2,2.5h1.6l-1.9-6.6h-1.4Z"/>
    <polygon class="st0" points="96.2 99.9 91.1 99.9 91.5 101.2 93.2 101.2 94.8 106.5 96.3 106.5 94.7 101.2 96.5 101.2 96.2 99.9"/>
    <polygon class="st0" points="100.9 99.9 101.6 102.4 99.2 102.4 98.4 99.9 96.9 99.9 98.9 106.5 100.4 106.5 99.6 103.7 102 103.7 102.8 106.5 104.3 106.5 102.4 99.9 100.9 99.9"/>
    <path class="st0" d="M109.3,104.5c-.3-.9-1-1.5-2.3-2-.9-.3-1.4-.5-1.5-.9,0-.3.1-.6.8-.6s1.2.2,1.5.3v-1.2c-.5-.2-1-.3-1.8-.3-1.5,0-2.2.8-1.9,2,.3,1,1.2,1.6,2.4,1.9.9.3,1.2.5,1.4.9.1.4-.2.7-.8.7s-1.3-.2-1.8-.4v1.2c.5.2,1.3.4,2,.4,1.8,0,2.4-.9,2-2Z"/>
  </g>
</svg>
